<svg width="20" height="20" viewBox="0 0 20 20" fill="none" xmlns="http://www.w3.org/2000/svg">
<path fill-rule="evenodd" clip-rule="evenodd" d="M2.5 10.8333C2.5 6.69118 5.85786 3.33331 10 3.33331C14.1421 3.33331 17.5 6.69118 17.5 10.8333C17.5 14.9754 14.1421 18.3333 10 18.3333C5.85786 18.3333 2.5 14.9754 2.5 10.8333ZM10.8333 7.49998C10.8333 7.03974 10.4602 6.66665 10 6.66665C9.53976 6.66665 9.16667 7.03974 9.16667 7.49998V10.8333C9.16667 11.0543 9.25446 11.2663 9.41074 11.4226L11.0774 13.0892C11.4028 13.4147 11.9305 13.4147 12.2559 13.0892C12.5814 12.7638 12.5814 12.2362 12.2559 11.9107L10.8333 10.4881V7.49998Z" fill="#323232"/>
<path d="M3.83338 4.41674C3.46519 4.69288 2.94286 4.61826 2.66672 4.25007C2.39057 3.88188 2.46519 3.35955 2.83338 3.0834L4.50005 1.8334C4.86824 1.55726 5.39057 1.63188 5.66672 2.00007C5.94286 2.36826 5.86824 2.89059 5.50005 3.16674L3.83338 4.41674Z" fill="#323232"/>
<path d="M15.5 1.8335C15.1319 1.55736 14.6095 1.63198 14.3334 2.00017C14.0572 2.36836 14.1319 2.89069 14.5 3.16683L16.1667 4.41683C16.5349 4.69298 17.0572 4.61836 17.3334 4.25017C17.6095 3.88198 17.5349 3.35964 17.1667 3.0835L15.5 1.8335Z" fill="#323232"/>
</svg>
