<svg width="24" height="25" viewBox="0 0 24 25" fill="none" xmlns="http://www.w3.org/2000/svg">
<path fill-rule="evenodd" clip-rule="evenodd" d="M5.99636 12.082C5.34406 12.082 4.86639 12.6964 5.02724 13.3286L6.42495 18.8217C6.76325 20.1513 7.96038 21.082 9.33231 21.082H14.6653C16.0384 21.082 17.2362 20.1497 17.5734 18.8187L18.9645 13.3275C19.1246 12.6956 18.647 12.082 17.9951 12.082H5.99636ZM9.00006 16.082C9.00006 15.5297 9.44777 15.082 10.0001 15.082C10.5523 15.082 11.0001 15.5297 11.0001 16.082V17.082C11.0001 17.6343 10.5523 18.082 10.0001 18.082C9.44777 18.082 9.00006 17.6343 9.00006 17.082V16.082ZM13.0001 16.082C13.0001 15.5297 13.4478 15.082 14.0001 15.082C14.5523 15.082 15.0001 15.5297 15.0001 16.082V17.082C15.0001 17.6343 14.5523 18.082 14.0001 18.082C13.4478 18.082 13.0001 17.6343 13.0001 17.082V16.082Z" fill="#323232"/>
<path d="M3 9.08197C3 8.52969 3.44772 8.08197 4 8.08197H20C20.5523 8.08197 21 8.52969 21 9.08197C21 9.63425 20.5523 10.082 20 10.082H4C3.44772 10.082 3 9.63425 3 9.08197Z" fill="#323232"/>
<path fill-rule="evenodd" clip-rule="evenodd" d="M10.7071 4.78908C11.0976 4.39855 11.0976 3.76539 10.7071 3.37486C10.3166 2.98434 9.68342 2.98434 9.29289 3.37486L8.29289 4.37486C7.90237 4.76539 7.90237 5.39855 8.29289 5.78908C8.68342 6.1796 9.31658 6.1796 9.70711 5.78908L10.7071 4.78908ZM13.2929 4.78908C12.9024 4.39855 12.9024 3.76539 13.2929 3.37486C13.6834 2.98434 14.3166 2.98434 14.7071 3.37486L15.7071 4.37486C16.0976 4.76539 16.0976 5.39855 15.7071 5.78908C15.3166 6.1796 14.6834 6.1796 14.2929 5.78908L13.2929 4.78908Z" fill="#323232"/>
</svg>
